<?xml version="1.0" encoding="UTF-8" standalone="no"?><!DOCTYPE svg PUBLIC "-//W3C//DTD SVG 1.1//EN" "http://www.w3.org/Graphics/SVG/1.1/DTD/svg11.dtd"><svg width="100%" height="100%" viewBox="0 0 9600 7249" version="1.1" xmlns="http://www.w3.org/2000/svg" xmlns:xlink="http://www.w3.org/1999/xlink" xml:space="preserve" xmlns:serif="http://www.serif.com/" style="fill-rule:evenodd;clip-rule:evenodd;stroke-linejoin:round;stroke-miterlimit:2;"><clipPath id="_clip1"><rect id="Wordmark" x="614.902" y="5329.15" width="8370.2" height="1304.34"/></clipPath><g clip-path="url(#_clip1)"><path id="Wordmark1" serif:id="Wordmark" d="M614.902,6604.05l-0,-1274.9l538.293,0c12.394,0 29.069,0.443 50.022,1.328c20.953,0.885 39.693,2.804 56.22,5.755c76.14,11.805 138.557,36.889 187.251,75.255c48.694,38.365 84.551,86.616 107.57,144.754c23.019,58.138 34.529,122.916 34.529,194.335c-0,106.832 -26.561,198.171 -79.682,274.016c-53.121,75.845 -136.344,122.621 -249.668,140.328l-106.242,7.082l-297.478,0l-0,432.051l-240.815,0Zm718.904,0l-251.439,-518.815l247.898,-47.809l276.229,566.624l-272.688,0Zm-478.089,-656.93l286.853,0c12.395,0 25.971,-0.59 40.726,-1.77c14.756,-1.181 28.332,-3.542 40.727,-7.083c32.462,-8.854 57.547,-23.757 75.254,-44.71c17.707,-20.954 29.955,-44.268 36.742,-69.943c6.788,-25.675 10.182,-50.022 10.182,-73.041c-0,-23.019 -3.394,-47.367 -10.182,-73.042c-6.787,-25.675 -19.035,-48.989 -36.742,-69.942c-17.707,-20.954 -42.792,-35.857 -75.254,-44.711c-12.395,-3.541 -25.971,-5.902 -40.727,-7.082c-14.755,-1.181 -28.331,-1.771 -40.726,-1.771l-286.853,-0l-0,393.095Z" style="fill:#fff;fill-rule:nonzero;"/><path d="M2245.72,6630.61c-97.979,-0 -184.301,-21.101 -258.965,-63.303c-74.665,-42.202 -133.098,-100.34 -175.3,-174.414c-42.201,-74.074 -63.302,-158.92 -63.302,-254.538c-0,-104.471 20.658,-195.367 61.974,-272.688c41.317,-77.32 98.274,-137.377 170.873,-180.169c72.599,-42.791 156.117,-64.187 250.554,-64.187c100.34,-0 185.628,23.609 255.866,70.828c70.238,47.218 122.178,113.62 155.822,199.203c33.643,85.584 45.448,186.219 35.414,301.905l-238.159,-0l-0,-88.535c-0,-97.389 -15.494,-167.479 -46.481,-210.271c-30.988,-42.792 -81.6,-64.188 -151.838,-64.188c-82.042,0 -142.394,24.938 -181.054,74.812c-38.66,49.875 -57.99,123.507 -57.99,220.895c-0,89.125 19.33,158.035 57.99,206.729c38.66,48.695 95.47,73.042 170.43,73.042c47.219,-0 87.65,-10.329 121.293,-30.988c33.643,-20.658 59.318,-50.464 77.025,-89.42l240.816,69.057c-36.005,87.355 -92.815,155.232 -170.43,203.631c-77.616,48.399 -162.462,72.599 -254.538,72.599Zm-316.956,-437.363l0,-178.841l633.911,0l-0,178.841l-633.911,-0Z" style="fill:#fff;fill-rule:nonzero;"/><path d="M3099.19,6604.05l-389.554,-1274.9l247.898,0l318.726,1048.26l324.038,-1048.26l247.898,0l-389.554,1274.9l-359.452,0Z" style="fill:#fff;fill-rule:nonzero;"/><path d="M4166.93,6630.61c-68.467,-0 -126.457,-13.133 -173.971,-39.398c-47.514,-26.266 -83.518,-61.385 -108.013,-105.357c-24.495,-43.972 -36.742,-92.519 -36.742,-145.64c0,-44.268 6.788,-84.699 20.363,-121.293c13.576,-36.595 35.562,-68.91 65.959,-96.946c30.397,-28.036 71.27,-51.498 122.621,-70.385c35.414,-12.985 77.615,-24.495 126.605,-34.529c48.989,-10.034 104.471,-19.625 166.446,-28.774c61.974,-9.148 130.146,-19.33 204.515,-30.544l-86.764,47.809c0,-56.663 -13.575,-98.274 -40.726,-124.835c-27.151,-26.56 -72.599,-39.841 -136.344,-39.841c-35.414,0 -72.303,8.559 -110.669,25.676c-38.365,17.116 -65.22,47.513 -80.566,91.191l-217.797,-69.058c24.2,-79.091 69.648,-143.426 136.344,-193.006c66.697,-49.58 157.593,-74.369 272.688,-74.369c84.404,-0 159.363,12.985 224.879,38.955c65.516,25.97 115.096,70.828 148.739,134.573c18.887,35.414 30.102,70.828 33.643,106.242c3.542,35.414 5.312,74.96 5.312,118.637l0,584.331l-210.713,0l-0,-196.548l30.102,40.727c-46.629,64.335 -96.946,110.816 -150.952,139.442c-54.007,28.626 -122.326,42.94 -204.959,42.94Zm51.35,-189.465c44.268,-0 81.6,-7.821 111.997,-23.462c30.397,-15.641 54.597,-33.496 72.599,-53.564c18.002,-20.068 30.249,-36.889 36.742,-50.465c12.395,-25.97 19.625,-56.219 21.691,-90.748c2.066,-34.529 3.099,-63.303 3.099,-86.322l70.828,17.707c-71.418,11.805 -129.261,21.691 -173.529,29.66c-44.267,7.968 -79.976,15.198 -107.127,21.691c-27.151,6.492 -51.055,13.575 -71.714,21.248c-23.609,9.444 -42.644,19.625 -57.105,30.545c-14.46,10.919 -25.085,22.871 -31.872,35.856c-6.788,12.985 -10.182,27.446 -10.182,43.382c0,21.839 5.46,40.579 16.379,56.22c10.92,15.641 26.413,27.594 46.481,35.857c20.068,8.263 43.972,12.395 71.713,12.395Z" style="fill:#fff;fill-rule:nonzero;"/><path d="M5585.26,6604.05l-0,-451.528c-0,-21.839 -1.181,-49.728 -3.541,-83.666c-2.361,-33.938 -9.739,-68.024 -22.134,-102.258c-12.395,-34.233 -32.611,-62.86 -60.647,-85.879c-28.036,-23.019 -67.729,-34.529 -119.079,-34.529c-20.658,0 -42.792,3.247 -66.402,9.739c-23.609,6.493 -45.743,19.035 -66.401,37.628c-20.658,18.592 -37.627,45.89 -50.907,81.895c-13.281,36.004 -19.921,83.813 -19.921,143.426l-138.114,-65.516c-0,-75.549 15.346,-146.377 46.038,-212.484c30.692,-66.106 76.878,-119.522 138.557,-160.248c61.679,-40.726 139.443,-61.089 233.29,-61.089c74.959,-0 136.049,12.69 183.267,38.07c47.219,25.38 83.961,57.548 110.226,96.503c26.266,38.955 45.006,79.534 56.22,121.736c11.215,42.201 18.002,80.714 20.363,115.538c2.361,34.824 3.542,60.204 3.542,76.14l-0,536.522l-244.357,0Zm-653.388,0l-0,-956.178l214.254,0l0,316.955l30.102,0l0,639.223l-244.356,0Z" style="fill:#fff;fill-rule:nonzero;"/><path d="M6463.52,6630.61c-99.159,-0 -184.153,-22.134 -254.981,-66.402c-70.828,-44.267 -125.129,-104.471 -162.904,-180.611c-37.775,-76.14 -56.662,-162.019 -56.662,-257.637c-0,-96.798 19.625,-183.267 58.875,-259.407c39.251,-76.141 94.585,-136.049 166.003,-179.727c71.419,-43.677 155.822,-65.515 253.211,-65.515c112.734,-0 207.319,28.478 283.754,85.436c76.436,56.957 125.277,134.721 146.526,233.29l-240.815,63.745c-14.166,-49.58 -38.808,-88.24 -73.927,-115.981c-35.119,-27.741 -74.812,-41.612 -119.08,-41.612c-50.76,0 -92.371,12.248 -124.834,36.743c-32.463,24.494 -56.367,57.842 -71.714,100.044c-15.346,42.202 -23.019,89.863 -23.019,142.984c0,83.223 18.445,150.657 55.335,202.303c36.889,51.645 91.634,77.468 164.232,77.468c54.302,-0 95.618,-12.395 123.949,-37.185c28.331,-24.79 49.58,-60.204 63.745,-106.242l246.128,51.35c-27.151,101.52 -78.501,179.726 -154.051,234.618c-75.55,54.892 -168.807,82.338 -279.771,82.338Z" style="fill:#fff;fill-rule:nonzero;"/><path d="M7492.3,6630.61c-97.979,-0 -184.3,-21.101 -258.965,-63.303c-74.664,-42.202 -133.098,-100.34 -175.299,-174.414c-42.202,-74.074 -63.303,-158.92 -63.303,-254.538c0,-104.471 20.658,-195.367 61.975,-272.688c41.316,-77.32 98.274,-137.377 170.872,-180.169c72.599,-42.791 156.117,-64.187 250.554,-64.187c100.34,-0 185.629,23.609 255.867,70.828c70.237,47.218 122.178,113.62 155.821,199.203c33.643,85.584 45.448,186.219 35.414,301.905l-238.159,-0l-0,-88.535c-0,-97.389 -15.494,-167.479 -46.481,-210.271c-30.987,-42.792 -81.6,-64.188 -151.837,-64.188c-82.043,0 -142.394,24.938 -181.055,74.812c-38.66,49.875 -57.99,123.507 -57.99,220.895c0,89.125 19.33,158.035 57.99,206.729c38.661,48.695 95.471,73.042 170.43,73.042c47.219,-0 87.65,-10.329 121.293,-30.988c33.644,-20.658 59.319,-50.464 77.026,-89.42l240.815,69.057c-36.004,87.355 -92.814,155.232 -170.43,203.631c-77.616,48.399 -162.462,72.599 -254.538,72.599Zm-316.955,-437.363l-0,-178.841l633.91,0l0,178.841l-633.91,-0Z" style="fill:#fff;fill-rule:nonzero;"/><path d="M8512.22,6630.61c-87.945,-0 -164.97,-22.134 -231.076,-66.402c-66.106,-44.267 -117.604,-104.471 -154.494,-180.611c-36.889,-76.14 -55.334,-162.019 -55.334,-257.637c-0,-97.388 18.74,-184.005 56.22,-259.85c37.479,-75.845 90.158,-135.606 158.035,-179.284c67.876,-43.677 147.558,-65.515 239.044,-65.515c90.896,-0 167.331,22.133 229.306,66.401c61.974,44.267 108.898,104.471 140.77,180.611c31.873,76.14 47.809,162.019 47.809,257.637c0,95.618 -16.083,181.497 -48.251,257.637c-32.168,76.14 -80.124,136.344 -143.87,180.611c-63.745,44.268 -143.131,66.402 -238.159,66.402Zm38.956,-214.255c53.711,-0 96.65,-12.1 128.818,-36.299c32.168,-24.2 55.334,-58.138 69.5,-101.816c14.166,-43.677 21.248,-94.437 21.248,-152.28c0,-57.843 -7.082,-108.603 -21.248,-152.28c-14.166,-43.677 -36.742,-77.616 -67.729,-101.815c-30.987,-24.2 -71.566,-36.3 -121.736,-36.3c-53.711,0 -97.831,13.133 -132.36,39.398c-34.528,26.266 -60.056,61.385 -76.582,105.357c-16.527,43.972 -24.79,92.519 -24.79,145.64c-0,53.711 7.968,102.553 23.904,146.526c15.936,43.972 40.431,78.943 73.484,104.914c33.053,25.97 75.55,38.955 127.491,38.955Zm219.566,187.694l0,-655.159l-30.101,0l-0,-619.745l242.585,0l0,1274.9l-212.484,0Z" style="fill:#fff;fill-rule:nonzero;"/></g><g id="Logo"><g id="Ring"><circle id="Ring-Background" serif:id="Ring Background" cx="4800" cy="2664.57" r="2049.67" style="fill:#1b1b1b;"/><path id="Ring1" serif:id="Ring" d="M4800,614.902c1131.25,-0 2049.67,918.427 2049.67,2049.67c0,1131.25 -918.427,2049.67 -2049.67,2049.67c-1131.25,0 -2049.67,-918.427 -2049.67,-2049.67c-0,-1131.25 918.427,-2049.67 2049.67,-2049.67Zm-0,184.47c1029.43,0 1865.2,835.769 1865.2,1865.2c-0,1029.43 -835.769,1865.2 -1865.2,1865.2c-1029.43,-0 -1865.2,-835.769 -1865.2,-1865.2c0,-1029.43 835.769,-1865.2 1865.2,-1865.2Z" style="fill:url(#_Linear2);"/></g><g id="Shape"><path id="V-Shape" serif:id="V Shape" d="M5510.93,1997.78c7.593,-17.329 5.93,-37.319 -4.422,-53.156c-10.351,-15.836 -27.994,-25.381 -46.913,-25.381c-26.379,-0 -53.47,-0 -72.584,-0c-15.886,-0 -30.269,9.393 -36.655,23.938c-63.887,145.508 -401.084,913.501 -513.699,1169.99c-6.387,14.546 -20.77,23.939 -36.656,23.939c-15.886,-0 -30.269,-9.393 -36.655,-23.939c-112.615,-256.491 -449.812,-1024.49 -513.699,-1169.99c-6.387,-14.545 -20.769,-23.938 -36.655,-23.938c-19.114,-0 -46.202,-0 -72.58,-0c-18.919,-0 -36.561,9.545 -46.913,25.381c-10.351,15.837 -12.014,35.826 -4.421,53.155c120.706,275.509 522.01,1191.47 603.987,1378.58c8.931,20.385 29.079,33.554 51.335,33.554c32.246,0 78.957,0 111.203,0c22.256,0 42.403,-13.169 51.335,-33.554c81.978,-187.11 483.285,-1103.07 603.992,-1378.58Z" style="fill:#fff;"/><path id="Diamond" d="M4841.6,2640.55c-8.581,14.864 -24.44,24.02 -41.603,24.02c-17.163,0 -33.022,-9.156 -41.603,-24.02c-87.097,-150.856 -287.752,-498.4 -374.849,-649.256c-8.581,-14.864 -8.581,-33.176 0,-48.04c8.582,-14.863 24.441,-24.019 41.603,-24.019c174.194,-0 575.504,-0 749.698,-0c17.162,-0 33.021,9.156 41.603,24.019c8.581,14.864 8.581,33.176 -0,48.04c-87.097,150.856 -287.752,498.4 -374.849,649.256Z" style="fill:url(#_Linear3);"/></g></g><defs><linearGradient id="_Linear2" x1="0" y1="0" x2="1" y2="0" gradientUnits="userSpaceOnUse" gradientTransform="matrix(2.51012e-13,4099.34,-4099.34,2.51012e-13,4800,614.902)"><stop offset="0" style="stop-color:#f04e98;stop-opacity:1"/><stop offset="0.5" style="stop-color:#5f65d4;stop-opacity:1"/><stop offset="1" style="stop-color:#4e98f0;stop-opacity:1"/></linearGradient><linearGradient id="_Linear3" x1="0" y1="0" x2="1" y2="0" gradientUnits="userSpaceOnUse" gradientTransform="matrix(9.07776e-14,1482.51,-1447.76,8.86499e-14,4800,1919.24)"><stop offset="0" style="stop-color:#f04e98;stop-opacity:1"/><stop offset="0.5" style="stop-color:#5f65d4;stop-opacity:1"/><stop offset="1" style="stop-color:#4e98f0;stop-opacity:1"/></linearGradient></defs></svg>