<svg xmlns="http://www.w3.org/2000/svg" enable-background="new 0 0 24 24" viewBox="0 0 24 24"><path d="M5.974,13.795c0.859,0.36,0.403-0.902,1.934-2.048c0.862-0.646,3.412-2.486,2.871-2.105V9.641c-2.766,1.951-5.64,1.714-6.959-2.528C3.586,6.361,3.08,12.582,5.974,13.795z"/><path d="M2.565 12.358c-.39-.546.967 3.514 4.365 3.563 2.49.036 2.78-2.408 4.44-2.482.501-.022.608-.808.63-1.067-.004-.045-.005-.077-.005-.077s.009-.009.012-.012c-.001-.001-.715-.774-1.617-.517l-.001.001c-1.522.434-2.113 2.523-3.649 2.781-.318.053-.675.148-1.092.128C4.867 14.639 3.881 14.204 2.565 12.358zM18.016 13.795c2.893-1.212 2.387-7.434 2.154-6.682-1.319 4.242-4.193 4.48-6.959 2.528-.54-.381 2.009 1.459 2.871 2.105v.001C17.613 12.893 17.156 14.155 18.016 13.795z"/><path d="M12 12.372c.02.248.123 1.056.631 1.079 1.66.074 1.95 2.518 4.44 2.482 3.399-.049 4.755-4.109 4.365-3.563-1.317 1.846-2.302 2.281-3.082 2.318-.417.02-.774-.075-1.092-.128-1.536-.258-2.127-2.347-3.649-2.781l-.001-.001c-.861-.245-1.543.44-1.605.505h0C12.006 12.283 12.004 12.321 12 12.372zM20.065 5.341c-1.179 2.963-5.641 1.848-6.067 3.718-.084.367.756 1.233 2.373 1.167C19.711 10.089 20.327 4.68 20.065 5.341zM7.838.604c-.694.068-2.451 1.104-2.13 1.533 1.701 2.276 2.746 4.356 4.713 5.949.264.214-1.179-2.193-1.239-3.547L9.181 4.539C9.115 3.056 8.532.536 7.838.604zM7.618 10.225c1.618.066 2.457-.8 2.373-1.167-.426-1.87-4.889-.755-6.067-3.718C3.662 4.68 4.278 10.089 7.618 10.225z"/><path d="M4.167 4.47c.122 1.021 1.21 1.987 2.663 2.38 1.554.421 3.37 1.384 3.37 1.384-2.188-1.361-1.725-1.19-2.941-2.46C6.141 4.607 5.29 2.273 5.29 2.273S4.077 3.709 4.167 4.47zM11.862 3.168c.14-1.681-.899-2.714-1.281-3.023C10.2-.164 9.469.073 8.59.363c.995.674 1.494 1.476 1.632 2.574-.209 2.539 1.17 3.775 1.332 8.077v.001C11.854 11.13 11.723 4.849 11.862 3.168zM13.199 14.527c-1.279 1.746-2.356-.069-2.356-.069S11 15.379 10.809 17.41C10.57 19.956 11.791 24 11.791 24s1.665-4.052 1.374-6.67C12.926 15.178 13.273 14.426 13.199 14.527zM17.992 16.162c.208-.343-1.194 1.337-2.582.137-.962-.832-1.127-1.085-1.875-1.808-.252-.244.28 1.014.428 2.151l-.001.001c.208 1.591-.023 2.462-.324 4.164C13.487 21.668 16.743 18.218 17.992 16.162zM16.73 5.774c-1.215 1.27-.754 1.099-2.941 2.46 0 0 1.816-.964 3.37-1.384 1.452-.393 2.542-1.359 2.663-2.38.09-.76-1.123-2.197-1.123-2.197S17.848 4.607 16.73 5.774zM10.409 14.619l-.001-.001c-.748.723-.914.976-1.875 1.808-1.387 1.2-2.79-.48-2.582-.137 1.249 2.057 4.506 5.506 4.354 4.645-.301-1.703-.532-2.574-.324-4.164C10.13 15.633 10.662 14.375 10.409 14.619zM13.407.147c-.382.309-1.42 1.342-1.281 3.023.139 1.681.007 7.962.309 7.846.162-4.302 1.54-5.538 1.332-8.077V2.937c.139-1.098.639-1.9 1.632-2.574C14.52.074 13.788-.162 13.407.147zM16.151.605c-.694-.068-1.277 2.453-1.343 3.936-.06 1.354-1.504 3.761-1.239 3.547l-.001-.001c1.966-1.594 3.012-3.673 4.713-5.949C18.603 1.709 16.846.673 16.151.605z"/></svg>