<svg width="20" height="17" viewBox="0 0 20 17" fill="none" xmlns="http://www.w3.org/2000/svg">
<path fill-rule="evenodd" clip-rule="evenodd" d="M18.5714 10.9953C20.4762 9.88627 20.4762 7.11373 18.5714 6.00471L8.92857 0.39032C7.02381 -0.718696 4.64286 0.667579 4.64286 2.88561V4.46595L2.14286 3.01037C1.19048 2.45586 3.61997e-07 3.149 3.61997e-07 4.25801L0 12.742C-3.33951e-08 13.851 1.19048 14.5441 2.14286 13.9896L4.64286 12.534V14.1144C4.64286 16.3324 7.02381 17.7187 8.92857 16.6097L18.5714 10.9953ZM4.64286 4.46595L4.64286 12.534L9.42857 9.74764C10.381 9.19313 10.381 7.80687 9.42857 7.25236L4.64286 4.46595Z" fill="#FF6B78"/>
<path fill-rule="evenodd" clip-rule="evenodd" d="M18.5714 10.9953C20.4762 9.88627 20.4762 7.11373 18.5714 6.00471L8.92857 0.39032C7.02381 -0.718696 4.64286 0.667579 4.64286 2.88561V4.46595L2.14286 3.01037C1.19048 2.45586 3.61997e-07 3.149 3.61997e-07 4.25801L0 12.742C-3.33951e-08 13.851 1.19048 14.5441 2.14286 13.9896L4.64286 12.534V14.1144C4.64286 16.3324 7.02381 17.7187 8.92857 16.6097L18.5714 10.9953ZM4.64286 4.46595L4.64286 12.534L9.42857 9.74764C10.381 9.19313 10.381 7.80687 9.42857 7.25236L4.64286 4.46595Z" fill="#FF4151"/>
<path fill-rule="evenodd" clip-rule="evenodd" d="M18.5714 6.00471C20.4762 7.11373 20.4762 9.88627 18.5714 10.9953L8.92857 16.6097C7.02381 17.7187 4.64286 16.3324 4.64286 14.1144V12.534L9.42857 9.74764C10.381 9.19313 10.381 7.80687 9.42857 7.25236L4.64286 4.46595V2.88561C4.64286 0.667579 7.02381 -0.718696 8.92857 0.39032L18.5714 6.00471Z" fill="#FF6B78"/>
<path fill-rule="evenodd" clip-rule="evenodd" d="M18.5714 6.00471C20.4762 7.11373 20.4762 9.88627 18.5714 10.9953L8.92857 16.6097C7.02381 17.7187 4.64286 16.3324 4.64286 14.1144V12.534L9.42857 9.74764C10.381 9.19313 10.381 7.80687 9.42857 7.25236L4.64286 4.46595V2.88561C4.64286 0.667579 7.02381 -0.718696 8.92857 0.39032L18.5714 6.00471Z" fill="white"/>
</svg>
