<?xml version="1.0" encoding="UTF-8" standalone="no"?><!DOCTYPE svg PUBLIC "-//W3C//DTD SVG 1.1//EN" "http://www.w3.org/Graphics/SVG/1.1/DTD/svg11.dtd"><svg width="100%" height="100%" viewBox="0 0 291 291" version="1.1" xmlns="http://www.w3.org/2000/svg" xmlns:xlink="http://www.w3.org/1999/xlink" xml:space="preserve" xmlns:serif="http://www.serif.com/" style="fill-rule:evenodd;clip-rule:evenodd;stroke-linejoin:round;stroke-miterlimit:2;"><g id="Logo"><g id="Shape"><path id="V-Shape" serif:id="V Shape" d="M284.194,15.327c1.482,-3.382 1.157,-7.283 -0.863,-10.374c-2.02,-3.09 -5.463,-4.953 -9.155,-4.953c-5.148,0 -10.435,0 -14.165,0c-3.1,0 -5.907,1.833 -7.154,4.672c-12.467,28.396 -78.272,178.272 -100.25,228.327c-1.246,2.839 -4.053,4.672 -7.153,4.672c-3.1,0 -5.907,-1.833 -7.153,-4.672c-21.978,-50.055 -87.783,-199.931 -100.25,-228.327c-1.247,-2.839 -4.054,-4.672 -7.154,-4.672c-3.73,0 -9.016,0 -14.164,0c-3.692,0 -7.135,1.863 -9.155,4.953c-2.02,3.091 -2.345,6.992 -0.863,10.374c23.556,53.766 101.872,232.519 117.87,269.034c1.743,3.978 5.675,6.548 10.018,6.548c6.293,0 15.409,0 21.702,0c4.343,0 8.275,-2.57 10.018,-6.548c15.998,-36.515 94.315,-215.268 117.871,-269.034Z"/><path id="Diamond" d="M153.574,140.767c-1.675,2.901 -4.77,4.688 -8.119,4.688c-3.35,-0 -6.445,-1.787 -8.119,-4.688c-16.998,-29.44 -56.156,-97.264 -73.153,-126.704c-1.675,-2.901 -1.675,-6.475 -0,-9.376c1.674,-2.9 4.769,-4.687 8.119,-4.687c33.994,0 112.311,0 146.305,0c3.35,-0 6.445,1.787 8.119,4.688c1.675,2.9 1.675,6.474 0,9.375c-16.997,29.44 -56.155,97.264 -73.152,126.704Z"/></g></g></svg>