<?xml version="1.0" encoding="UTF-8" standalone="no"?><!DOCTYPE svg PUBLIC "-//W3C//DTD SVG 1.1//EN" "http://www.w3.org/Graphics/SVG/1.1/DTD/svg11.dtd"><svg width="100%" height="100%" viewBox="0 0 800 800" version="1.1" xmlns="http://www.w3.org/2000/svg" xmlns:xlink="http://www.w3.org/1999/xlink" xml:space="preserve" xmlns:serif="http://www.serif.com/" style="fill-rule:evenodd;clip-rule:evenodd;stroke-linejoin:round;stroke-miterlimit:2;"><g id="Logo"><g id="Ring"><circle id="Ring-Background" serif:id="Ring Background" cx="400" cy="400" r="400" style="fill:#1b1b1b;"/><path id="Ring1" serif:id="Ring" d="M400,0c220.766,0 400,179.234 400,400c-0,220.766 -179.234,400 -400,400c-220.766,-0 -400,-179.234 -400,-400c0,-220.766 179.234,-400 400,-400Zm-0,36c200.897,-0 364,163.103 364,364c0,200.897 -163.103,364 -364,364c-200.897,0 -364,-163.103 -364,-364c-0,-200.897 163.103,-364 364,-364Z" style="fill:url(#_Linear1);"/></g><g id="Shape"><path id="V-Shape" serif:id="V Shape" d="M538.74,269.872c1.481,-3.382 1.157,-7.283 -0.863,-10.373c-2.021,-3.091 -5.464,-4.954 -9.156,-4.954c-5.148,0 -10.435,0 -14.165,0c-3.1,0 -5.907,1.834 -7.153,4.672c-12.468,28.396 -78.273,178.273 -100.25,228.328c-1.246,2.838 -4.053,4.671 -7.154,4.671c-3.1,0 -5.907,-1.833 -7.153,-4.671c-21.977,-50.055 -87.782,-199.932 -100.25,-228.328c-1.246,-2.838 -4.053,-4.672 -7.153,-4.672c-3.73,0 -9.017,0 -14.164,0c-3.693,0 -7.135,1.863 -9.156,4.954c-2.02,3.09 -2.344,6.991 -0.863,10.373c23.557,53.766 101.872,232.519 117.871,269.034c1.743,3.979 5.674,6.549 10.018,6.549c6.293,-0 15.408,-0 21.701,-0c4.344,-0 8.275,-2.57 10.018,-6.549c15.999,-36.515 94.315,-215.268 117.872,-269.034Z" style="fill:#fff;"/><path id="Diamond" d="M408.119,395.312c-1.675,2.901 -4.77,4.688 -8.119,4.688c-3.349,-0 -6.444,-1.787 -8.119,-4.688c-16.997,-29.44 -56.156,-97.264 -73.153,-126.704c-1.675,-2.901 -1.675,-6.474 0,-9.375c1.675,-2.901 4.77,-4.688 8.119,-4.688c33.995,0 112.311,0 146.306,0c3.349,0 6.444,1.787 8.119,4.688c1.675,2.901 1.675,6.474 -0,9.375c-16.997,29.44 -56.156,97.264 -73.153,126.704Z" style="fill:url(#_Linear2);"/></g></g><defs><linearGradient id="_Linear1" x1="0" y1="0" x2="1" y2="0" gradientUnits="userSpaceOnUse" gradientTransform="matrix(4.89859e-14,800,-800,4.89859e-14,400.001,3.31681e-10)"><stop offset="0" style="stop-color:#f04e98;stop-opacity:1"/><stop offset="0.5" style="stop-color:#5f65d4;stop-opacity:1"/><stop offset="1" style="stop-color:#4e98f0;stop-opacity:1"/></linearGradient><linearGradient id="_Linear2" x1="0" y1="0" x2="1" y2="0" gradientUnits="userSpaceOnUse" gradientTransform="matrix(1.77155e-14,289.317,-282.535,1.73003e-14,400,254.545)"><stop offset="0" style="stop-color:#f04e98;stop-opacity:1"/><stop offset="0.5" style="stop-color:#5f65d4;stop-opacity:1"/><stop offset="1" style="stop-color:#4e98f0;stop-opacity:1"/></linearGradient></defs></svg>
