<?xml version="1.0" encoding="UTF-8" standalone="no"?>
<!DOCTYPE svg PUBLIC "-//W3C//DTD SVG 1.1//EN" "http://www.w3.org/Graphics/SVG/1.1/DTD/svg11.dtd">
<svg width="100%" height="100%" viewBox="0 0 136 133" version="1.1" xmlns="http://www.w3.org/2000/svg" xmlns:xlink="http://www.w3.org/1999/xlink" xml:space="preserve" xmlns:serif="http://www.serif.com/" style="fill-rule:evenodd;clip-rule:evenodd;stroke-linejoin:round;stroke-miterlimit:2;">
    <g transform="matrix(4.16667,0,0,4.16667,-568,-231.062)">
        <path d="M152.608,55.455C143.614,55.455 136.32,62.748 136.32,71.746C136.32,78.942 140.987,85.048 147.46,87.202C148.275,87.351 148.572,86.848 148.572,86.417C148.572,86.03 148.558,85.006 148.55,83.646C144.019,84.631 143.063,81.463 143.063,81.463C142.322,79.581 141.254,79.08 141.254,79.08C139.775,78.069 141.366,78.09 141.366,78.09C143.001,78.205 143.861,79.768 143.861,79.768C145.314,82.258 147.674,81.539 148.602,81.122C148.75,80.069 149.171,79.351 149.636,78.944C146.019,78.533 142.216,77.135 142.216,70.893C142.216,69.115 142.851,67.661 143.893,66.522C143.725,66.11 143.166,64.454 144.053,62.211C144.053,62.211 145.42,61.773 148.532,63.881C149.831,63.52 151.225,63.339 152.61,63.333C153.994,63.339 155.387,63.52 156.688,63.881C159.798,61.773 161.163,62.211 161.163,62.211C162.052,64.454 161.493,66.11 161.326,66.522C162.37,67.661 163,69.115 163,70.893C163,77.151 159.191,78.528 155.563,78.931C156.147,79.434 156.668,80.428 156.668,81.948C156.668,84.126 156.648,85.883 156.648,86.417C156.648,86.852 156.942,87.359 157.768,87.2C164.236,85.042 168.899,78.94 168.899,71.746C168.899,62.748 161.605,55.455 152.608,55.455Z" style="fill:rgb(24,23,23);"/>
    </g>
</svg>
